# xmcd CD database file
#
# Track frame offsets:
#	150
#	18130
#	33524
#	50779
#
# Disc length: 860 seconds
#
# Revision: 2
# Processed by: cddbd v1.5.1PL0 Copyright (c) Steve Scherf et al.
# Submitted via: CDex 1.51
#
DISCID=2b035a04
DTITLE=PADD'PANIK - y'a pas d'risk !
DYEAR=2004
DGENRE=Country
TTITLE0=Constat d'echec
TTITLE1=L'inconnue
TTITLE2=La mort a fond
TTITLE3=Vendredi 13
EXTD=YEAR: 2004
EXTT0=
EXTT1=
EXTT2=
EXTT3=
PLAYORDER=
